<svg version="1.1" id="Layer_1" xmlns="http://www.w3.org/2000/svg" xmlns:xlink="http://www.w3.org/1999/xlink" x="0px" y="0px"
	 width="100%" viewBox="0 0 277 98" enable-background="new 0 0 277 98" xml:space="preserve">
<path fill="none" opacity="1.000000" stroke="#000000" stroke-linecap="round" stroke-linejoin="round" stroke-width="2.000000"
	d="
M102.000000,49.000000 
	C110.082008,50.519394 120.090782,45.984142 123.989204,38.993977 
	C124.860634,37.431438 125.881531,35.730473 124.474754,34.020771 
	C122.759697,31.936405 119.990860,31.868872 118.059433,32.647442 
	C114.355156,34.140675 110.340141,35.857258 107.636467,38.632927 
	C101.892357,44.529984 98.039085,51.769596 96.526627,60.004890 
	C95.521088,65.479980 97.904076,69.850334 102.500000,71.500000 
"/>
<path fill="none" opacity="1.000000" stroke="#000000" stroke-linecap="round" stroke-linejoin="round" stroke-width="2.000000"
	d="
M39.500000,33.500000 
	C35.618393,38.343155 34.399769,44.311562 32.487343,49.995743 
	C29.953287,57.527554 27.408085,65.066559 22.499014,71.499245 
	C19.578070,75.326759 16.421726,78.784309 11.000145,78.497261 
	C7.619999,78.318291 6.553891,76.616203 8.017540,73.508263 
	C10.113772,69.057076 13.826648,66.626640 18.500000,65.500000 
"/>
<path fill="none" opacity="1.000000" stroke="#000000" stroke-linecap="round" stroke-linejoin="round" stroke-width="3.000000"
	d="
M255.500000,64.500000 
	C257.644714,60.418854 259.328644,56.249100 258.225311,51.512299 
	C251.805573,51.161854 247.829041,58.010319 249.030151,67.231491 
	C250.155243,67.318558 251.327621,67.409279 252.500000,67.500000 
"/>
<path fill="none" opacity="1.000000" stroke="#000000" stroke-linecap="round" stroke-linejoin="round" stroke-width="3.000000"
	d="
M180.500000,37.000000 
	C179.597031,37.097027 179.235077,37.638386 178.978806,38.493652 
	C176.179306,47.837120 173.333328,57.166668 170.500000,66.500000 
"/>
<path fill="none" opacity="1.000000" stroke="#000000" stroke-linecap="round" stroke-linejoin="round" stroke-width="3.000000"
	d="
M186.500000,37.500000 
	C183.833328,46.166664 181.139633,54.825211 178.529785,63.508953 
	C178.148453,64.777771 178.166672,66.166664 178.000000,67.500000 
"/>
<path fill="none" opacity="1.000000" stroke="#000000" stroke-linecap="round" stroke-linejoin="round" stroke-width="3.000000"
	d="
M155.500000,56.500000 
	C151.773987,62.092484 148.095947,67.744926 139.722672,69.232735 
	C142.077560,63.893444 143.840164,59.344921 146.053223,55.027279 
	C148.496399,50.260681 149.291000,45.064583 150.407547,39.979698 
	C151.248932,36.148052 148.429260,33.009758 144.500000,32.500000 
"/>
<path fill="none" opacity="1.000000" stroke="#000000" stroke-linecap="round" stroke-linejoin="round" stroke-width="3.000000"
	d="
M233.500000,52.500000 
	C232.222275,50.332905 230.673294,50.416477 229.003952,52.004154 
	C225.577820,55.262669 224.205658,59.318958 223.926041,63.995579 
	C223.750854,66.925179 224.740997,67.925674 227.500000,67.500000 
"/>
<path fill="none" opacity="1.000000" stroke="#000000" stroke-linecap="round" stroke-linejoin="round" stroke-width="3.000000"
	d="
M65.500000,51.500000 
	C64.386566,49.574120 62.819633,50.401806 61.516014,51.033070 
	C57.321411,53.064259 53.403610,60.982052 53.937435,65.507378 
	C54.157028,67.368919 55.042313,67.613777 56.500000,67.500000 
"/>
<path fill="none" opacity="1.000000" stroke="#000000" stroke-linecap="round" stroke-linejoin="round" stroke-width="3.000000"
	d="
M195.500000,50.500000 
	C189.480606,51.280914 182.974640,61.157509 185.028763,66.488922 
	C185.419769,67.503815 186.472504,67.652069 187.500000,67.500000 
"/>
<path fill="none" opacity="1.000000" stroke="#000000" stroke-linecap="round" stroke-linejoin="round" stroke-width="3.000000"
	d="
M44.500000,50.500000 
	C39.808117,54.201340 39.957432,60.095818 38.142239,65.052094 
	C37.448563,66.946136 39.714130,67.533546 41.500000,67.500000 
"/>
<path fill="none" opacity="1.000000" stroke="#000000" stroke-linecap="round" stroke-linejoin="round" stroke-width="2.000000"
	d="
M32.500000,31.500000 
	C27.848047,31.283844 23.724081,32.427704 21.048574,36.531666 
	C20.128550,37.942894 18.889561,39.375866 19.931192,41.533222 
	C20.993715,43.733849 22.719332,43.468227 24.500031,43.498192 
	C25.166508,43.509407 25.833334,43.500000 26.500000,43.500000 
"/>
<path fill="none" opacity="1.000000" stroke="#000000" stroke-linecap="round" stroke-linejoin="round" stroke-width="2.000000"
	d="
M118.500000,54.500000 
	C119.069237,61.225815 115.571457,65.782555 110.500000,69.500000 
"/>
<path fill="none" opacity="1.000000" stroke="#000000" stroke-linecap="round" stroke-linejoin="round" stroke-width="2.000000"
	d="
M172.500000,33.500000 
	C172.246368,32.500000 173.883972,31.188026 172.454773,30.612284 
	C171.538300,30.243088 170.202301,29.118580 168.931885,30.952827 
	C166.644363,34.255611 164.526489,37.577366 163.500000,41.500000 
"/>
<path fill="none" opacity="1.000000" stroke="#000000" stroke-linecap="round" stroke-linejoin="round" stroke-width="3.000000"
	d="
M168.500000,52.000000 
	C164.831314,56.142845 164.859146,61.815277 162.500000,66.500000 
"/>
<path fill="none" opacity="1.000000" stroke="#000000" stroke-linecap="round" stroke-linejoin="round" stroke-width="3.000000"
	d="
M52.500000,50.500000 
	C47.631538,54.122185 46.943817,59.668549 46.085838,65.013779 
	C45.743893,67.144096 47.714130,67.533546 49.500000,67.500000 
"/>
<path fill="none" opacity="1.000000" stroke="#000000" stroke-linecap="round" stroke-linejoin="round" stroke-width="3.000000"
	d="
M268.500000,53.000000 
	C268.883820,51.879803 269.813751,50.541840 267.500000,50.499783 
	C265.714111,50.467323 264.352448,50.817451 263.953125,52.991386 
	C263.526642,55.313217 264.662292,57.068726 265.478638,59.008984 
	C266.730865,61.985073 267.921570,65.029991 264.500000,67.500000 
"/>
<path fill="none" opacity="1.000000" stroke="#000000" stroke-linecap="round" stroke-linejoin="round" stroke-width="3.000000"
	d="
M83.500000,51.500000 
	C79.192375,54.974388 78.738182,60.181099 77.542480,65.010513 
	C76.950989,67.399536 78.660645,67.673897 80.500000,67.500000 
"/>
<path fill="none" opacity="1.000000" stroke="#000000" stroke-linecap="round" stroke-linejoin="round" stroke-width="2.000000"
	d="
M117.500000,52.500000 
	C111.595268,51.568073 108.558151,55.552067 105.500000,59.500000 
"/>
<path fill="none" opacity="1.000000" stroke="#000000" stroke-linecap="round" stroke-linejoin="round" stroke-width="3.000000"
	d="
M220.500000,51.500000 
	C217.936462,55.307915 216.979202,59.751888 215.445496,63.980228 
	C214.207489,67.393372 216.068283,67.560516 218.500000,67.500000 
"/>
<path fill="none" opacity="1.000000" stroke="#000000" stroke-linecap="round" stroke-linejoin="round" stroke-width="3.000000"
	d="
M211.500000,53.000000 
	C211.305984,57.129356 209.546082,60.797657 207.940094,64.473824 
	C207.331482,65.866959 207.564529,67.153900 207.500000,68.500000 
"/>
<path fill="none" opacity="1.000000" stroke="#000000" stroke-linecap="round" stroke-linejoin="round" stroke-width="2.000000"
	d="
M93.500000,36.500000 
	C91.898148,41.547104 93.471794,45.351616 98.000000,48.000000 
"/>
<path fill="none" opacity="1.000000" stroke="#000000" stroke-linecap="round" stroke-linejoin="round" stroke-width="3.000000"
	d="
M207.500000,50.500000 
	C204.160751,51.650963 203.908463,55.193291 203.262421,57.571293 
	C202.342346,60.957836 200.718277,64.082146 200.000000,67.500000 
"/>
<path fill="none" opacity="1.000000" stroke="#000000" stroke-linecap="round" stroke-linejoin="round" stroke-width="3.000000"
	d="
M76.500000,50.500000 
	C73.086052,51.602936 72.955551,55.223022 72.274834,57.579395 
	C71.305733,60.934017 69.718277,64.082146 69.000000,67.500000 
"/>
<path fill="none" opacity="1.000000" stroke="#000000" stroke-linecap="round" stroke-linejoin="round" stroke-width="3.000000"
	d="
M241.500000,50.499996 
	C239.333328,56.499996 237.166656,62.499996 235.000000,68.500000 
"/>
<path fill="none" opacity="1.000000" stroke="#000000" stroke-linecap="round" stroke-linejoin="round" stroke-width="3.000000"
	d="
M197.500000,55.000000 
	C194.100906,57.686108 193.057465,61.337112 192.953766,65.498848 
	C192.901184,67.609947 194.104935,67.535500 195.500000,67.500000 
"/>
<path fill="none" opacity="1.000000" stroke="#000000" stroke-linecap="round" stroke-linejoin="round" stroke-width="3.000000"
	d="
M66.500000,55.000000 
	C63.360134,57.389889 62.355160,60.791355 62.000362,64.500038 
	C61.824417,66.339195 62.050415,67.846878 64.500000,67.500000 
"/>
<path fill="none" opacity="1.000000" stroke="#000000" stroke-linecap="round" stroke-linejoin="round" stroke-width="3.000000"
	d="
M247.000000,55.500000 
	C247.545349,54.381332 247.923752,53.033539 246.475388,52.578278 
	C245.099365,52.145756 243.966415,53.032967 243.500000,54.500000 
"/>
<path fill="none" opacity="1.000000" stroke="#000000" stroke-linecap="round" stroke-linejoin="round" stroke-width="2.000000"
	d="
M29.000000,62.000000 
	C30.771816,62.843357 32.661362,62.391682 34.500000,62.500000 
"/>
<path fill="none" opacity="1.000000" stroke="#000000" stroke-linecap="round" stroke-linejoin="round" stroke-width="2.000000"
	d="
M141.500000,53.500000 
	C141.436157,55.498436 142.449188,56.898602 144.000000,58.000000 
"/>
<path fill="none" opacity="1.000000" stroke="#000000" stroke-linecap="round" stroke-linejoin="round" stroke-width="2.000000"
	d="
M26.000000,64.000000 
	C24.833334,63.833332 23.666666,63.666664 22.500000,63.500000 
"/>
</svg>